<?xml version="1.0" standalone="no"?>
<!DOCTYPE svg PUBLIC "-//W3C//DTD SVG 20010904//EN"
 "http://www.w3.org/TR/2001/REC-SVG-20010904/DTD/svg10.dtd">
<svg version="1.0" xmlns="http://www.w3.org/2000/svg"
 width="700.000000pt" height="700.000000pt" viewBox="0 0 700.000000 700.000000"
 preserveAspectRatio="xMidYMid meet">
<metadata>
Created by potrace 1.11, written by Peter Selinger 2001-2013
</metadata>
<g transform="translate(0.000000,700.000000) scale(0.100000,-0.100000)"
fill="#000000" stroke="none">
<path d="M3215 6989 c-748 -64 -1435 -351 -1995 -835 -551 -475 -938 -1101
-1114 -1799 -34 -137 -72 -346 -88 -490 -17 -155 -17 -575 0 -730 63 -570 255
-1100 567 -1570 270 -405 644 -771 1047 -1024 457 -287 944 -456 1503 -523
139 -16 595 -16 730 0 847 103 1555 446 2131 1034 204 208 346 389 490 623
269 439 429 910 496 1460 16 130 16 600 0 730 -73 596 -246 1079 -557 1555
-139 213 -239 336 -449 548 -657 668 -1554 1038 -2496 1031 -91 -1 -210 -6
-265 -10z m332 -1874 c2430 -2335 2280 -2188 2246 -2197 -18 -5 -910 -262
-1984 -573 -1074 -311 -1956 -564 -1959 -563 -3 2 169 710 382 1573 213 864
436 1765 494 2003 59 238 111 431 115 430 5 -2 322 -304 706 -673z"/>
</g>
</svg>
