<svg width="695" height="540" viewBox="0 0 695 540" fill="none" xmlns="http://www.w3.org/2000/svg">
<path fill-rule="evenodd" clip-rule="evenodd" d="M365.48 42.2365C433.849 32.2571 509.15 -26.0318 565.666 13.7155C621.983 53.3229 583.931 145.878 605.714 211.191C627.78 277.356 706.425 327.229 693.054 395.683C679.707 464.014 608.241 509.546 542.797 533.303C485.529 554.093 426.394 515.736 365.48 514.6C306.375 513.498 249.132 545.026 192.904 526.779C123.203 504.159 49.0648 468.588 18.4883 401.992C-13.0034 333.404 -2.01564 247.766 34.4622 181.694C68.2648 120.468 139.231 93.7057 203.683 66.5526C255.203 44.8471 310.16 50.3114 365.48 42.2365Z" fill="url(#paint0_linear)"/>
<path d="M378.148 93.7522V117.307H405.932L372.394 177.23H438.605V153.679H412.569L446.106 93.7522H378.148Z" fill="white"/>
<path d="M520.215 58.7852H462.552V82.3398H480.04L453.317 130.09H513.323V106.536H493.492L520.215 58.7852Z" fill="white"/>
<path d="M270.139 156.927C186.367 156.927 118.215 225.082 118.215 308.851C118.215 392.624 186.367 460.776 270.139 460.776C353.912 460.776 422.064 392.624 422.064 308.851C422.064 225.082 353.912 156.927 270.139 156.927ZM215.24 312.158C193.314 312.158 175.473 294.32 175.473 272.394H199.028C199.028 281.331 206.303 288.606 215.24 288.606C224.18 288.606 231.452 281.331 231.452 272.394H255.007C255.007 294.32 237.169 312.158 215.24 312.158ZM294.553 392.004H245.726V368.45H294.553V392.004ZM324.098 312.158C302.171 312.158 284.331 294.32 284.331 272.394H307.885C307.885 281.331 315.16 288.606 324.098 288.606C333.038 288.606 340.31 281.331 340.31 272.394H363.864C363.864 294.32 346.024 312.158 324.098 312.158Z" fill="white"/>
<defs>
<linearGradient id="paint0_linear" x1="0" y1="0" x2="555.789" y2="656.801" gradientUnits="userSpaceOnUse">
<stop stop-color="#FC00FF"/>
<stop offset="1" stop-color="#00DBDE"/>
</linearGradient>
</defs>
</svg>
